<svg width="18" height="18" viewBox="0 0 18 18" fill="none" xmlns="http://www.w3.org/2000/svg">
<path d="M10.9286 10.1956L15.32 5.7901C15.5947 5.51387 15.75 5.13658 15.75 4.74282V3.45075C15.75 2.64002 15.1068 2.25 14.3133 2.25H3.68667C2.89324 2.25 2.25 2.64002 2.25 3.45075V4.76603C2.25 5.13883 2.38847 5.49815 2.63829 5.77064L6.67283 10.1724C6.74902 10.2555 6.85525 10.3026 6.96734 10.3034L10.6436 10.3139C10.7499 10.3146 10.8524 10.2727 10.9286 10.1956Z" fill="#130F26"/>
<path opacity="0.4" d="M6.79224 10.2643V15.2177C6.79224 15.3982 6.88308 15.5681 7.0318 15.6654C7.11679 15.7215 7.21496 15.75 7.31313 15.75C7.38712 15.75 7.46112 15.7343 7.52999 15.7028L10.5044 14.3164C10.6905 14.2303 10.8099 14.041 10.8099 13.8321V10.2643H6.79224Z" fill="#130F26"/>
</svg>
