<svg width="14" height="14" viewBox="0 0 14 14" fill="none" xmlns="http://www.w3.org/2000/svg">
<path opacity="0.4" d="M6.86933 12.7385C5.53756 11.9159 4.29955 10.946 3.17795 9.84643C2.38615 9.06136 1.78144 8.10277 1.41003 7.0439C0.746413 4.97888 1.51891 2.61886 3.67567 1.91823C4.81405 1.56073 6.05213 1.78019 7.00413 2.50824V2.50824C7.95648 1.781 9.19416 1.56161 10.3326 1.91823C12.4894 2.61886 13.267 4.97888 12.6034 7.0439C12.235 8.10177 11.6339 9.06028 10.8459 9.84643C9.72324 10.9448 8.48537 11.9146 7.15448 12.7385L7.00931 12.8333L6.86933 12.7385Z" fill="#52D22E"/>
<path d="M7.00637 12.8333L6.86933 12.7385C5.53591 11.916 4.29618 10.9461 3.17277 9.84643C2.37721 9.06245 1.7689 8.10377 1.39447 7.0439C0.73604 4.97888 1.50853 2.61886 3.6653 1.91823C4.80368 1.56072 6.05809 1.78036 7.00637 2.5145V12.8333Z" fill="#52D22E"/>
<path d="M10.6344 5.83288V5.83288C10.5173 5.82534 10.4081 5.76677 10.3326 5.67091C10.2571 5.57505 10.2219 5.45032 10.2351 5.32593V5.32593C10.2478 4.91622 10.0147 4.54329 9.65518 4.3982C9.42722 4.33597 9.28917 4.08909 9.3462 3.84562C9.40031 3.60606 9.62463 3.45711 9.85008 3.51103C9.87855 3.51575 9.90595 3.52606 9.93089 3.54144C10.6517 3.81884 11.1184 4.5654 11.0813 5.38169C11.0801 5.50541 11.0319 5.62332 10.9476 5.70839C10.8634 5.79346 10.7503 5.83839 10.6344 5.83288Z" fill="#52D22E"/>
</svg>
