<svg width="14" height="14" viewBox="0 0 14 14" fill="none" xmlns="http://www.w3.org/2000/svg">
<path opacity="0.4" d="M9.52747 12.8333H4.47194C2.49485 12.8333 1.16666 11.4467 1.16666 9.3825V4.61809C1.16666 2.5539 2.49485 1.16667 4.47194 1.16667H9.52806C11.5051 1.16667 12.8333 2.5539 12.8333 4.61809V9.3825C12.8333 11.4467 11.5051 12.8333 9.52747 12.8333" fill="#6270F0"/>
<path fill-rule="evenodd" clip-rule="evenodd" d="M6.55958 5.06042C6.55958 5.85959 5.90916 6.51 5.11 6.51C4.31025 6.51 3.66041 5.85959 3.66041 5.06042C3.66041 4.26125 4.31025 3.61025 5.11 3.61025C5.90916 3.61025 6.55958 4.26125 6.55958 5.06042ZM11.3169 8.21777C11.4528 8.3496 11.5502 8.5001 11.6144 8.66052C11.8086 9.14585 11.7077 9.72919 11.5001 10.2099C11.2539 10.7821 10.7826 11.2144 10.1887 11.4034C9.92507 11.4879 9.64856 11.5241 9.37265 11.5241H4.48373C3.99723 11.5241 3.56673 11.4109 3.21381 11.1986C2.99273 11.0656 2.95365 10.7594 3.11756 10.5599C3.39173 10.2274 3.6624 9.89369 3.9354 9.5571C4.45573 8.9131 4.80631 8.72644 5.19598 8.89035C5.35406 8.95802 5.51273 9.0601 5.67606 9.16744C6.11123 9.4556 6.71615 9.8511 7.51298 9.42177C8.05765 9.12394 8.37382 8.6143 8.64902 8.17071L8.65456 8.16177C8.67308 8.13208 8.69145 8.10241 8.70976 8.07282C8.80333 7.92162 8.89549 7.77269 8.9999 7.6356C9.1294 7.46585 9.61006 6.93502 10.2313 7.31302C10.6274 7.55102 10.9605 7.87302 11.3169 8.21777Z" fill="#6270F0"/>
</svg>
